<svg xmlns="http://www.w3.org/2000/svg" xmlns:xlink="http://www.w3.org/1999/xlink" width="16" height="16" viewBox="0 0 16 16" fill="none"><defs><rect id="path_0" x="0" y="0" width="16" height="16" /></defs><g opacity="1" transform="translate(-1.758593271006248e-13 0)  rotate(0 8 8)"><mask id="bg-mask-0" fill="white"><use xlink:href="#path_0"></use></mask><g mask="url(#bg-mask-0)" ><path id="路径 1" fill-rule="evenodd" style="fill:#FFFFFF" transform="translate(0 0)  rotate(0 8 8)" opacity="0.01" d="M0,16L16,16L16,0L0,0L0,16Z " /><path id="拼合图形" fill-rule="evenodd" style="fill:#666666" transform="translate(0.666659242339848 1.3333329577032762)  rotate(0 7.330000000000001 6.665000021148367)" opacity="1" d="M14.59 6.3C14.61 6.27 14.62 6.22 14.64 6.18C14.65 6.14 14.66 6.1 14.66 6.05L14.66 5.92C14.65 5.88 14.65 5.84 14.63 5.8C14.62 5.75 14.6 5.71 14.58 5.68C14.56 5.64 14.54 5.6 14.51 5.57C14.48 5.53 14.45 5.5 14.41 5.48L12.75 4.15L12.72 4.12L7.75 0.15C7.72 0.12 7.69 0.1 7.66 0.08C7.63 0.07 7.59 0.05 7.56 0.04C7.52 0.03 7.49 0.02 7.45 0.01C7.41 0 7.37 0 7.34 0C7.3 0 7.26 0 7.23 0.01C7.19 0.02 7.15 0.03 7.12 0.04C7.08 0.05 7.05 0.07 7.01 0.08C6.98 0.1 6.95 0.12 6.92 0.15L0.25 5.48C0.22 5.5 0.19 5.53 0.16 5.57C0.13 5.6 0.1 5.64 0.08 5.67C0.06 5.71 0.04 5.75 0.03 5.79C0.02 5.84 0.01 5.88 0 5.92L0 6.05C0.01 6.1 0.01 6.14 0.03 6.18C0.04 6.22 0.05 6.26 0.07 6.3C0.09 6.34 0.12 6.38 0.15 6.41C0.17 6.45 0.2 6.48 0.24 6.51C0.27 6.53 0.31 6.56 0.34 6.58C0.38 6.6 0.42 6.62 0.46 6.63C0.51 6.65 0.55 6.65 0.59 6.66L0.72 6.66C0.77 6.66 0.81 6.65 0.85 6.64C0.89 6.63 0.93 6.61 0.97 6.59C1.01 6.57 1.05 6.55 1.08 6.52L1.67 6.05L1.67 12.5771C1.66667 12.6055 1.66667 12.6354 1.66667 12.67C1.66667 12.71 1.66667 12.75 1.67667 12.8C1.68667 12.84 1.69667 12.88 1.71667 12.92L1.77667 13.04C1.80667 13.07 1.82667 13.11 1.86667 13.14C1.89667 13.17 1.92667 13.2 1.96667 13.22C1.99667 13.25 2.03667 13.27 2.07667 13.28C2.11667 13.3 2.15667 13.31 2.20667 13.32C2.24667 13.33 2.28667 13.33 2.33667 13.33L12.34 13.33C12.38 13.33 12.42 13.33 12.47 13.32C12.51 13.31 12.55 13.3 12.59 13.28C12.63 13.27 12.67 13.25 12.71 13.22C12.74 13.2 12.78 13.17 12.81 13.14C12.84 13.11 12.87 13.07 12.89 13.04C12.92 13 12.94 12.96 12.95 12.92C12.97 12.88 12.98 12.84 12.99 12.8C13 12.75 13 12.71 13 12.67L13 6.06L13.58 6.52C13.61 6.54 13.65 6.57 13.69 6.59C13.73 6.61 13.77 6.62 13.81 6.64C13.85 6.65 13.9 6.66 13.94 6.66L14.07 6.66C14.11 6.65 14.16 6.65 14.2 6.63C14.24 6.62 14.28 6.6 14.32 6.58C14.36 6.56 14.39 6.54 14.43 6.51C14.46 6.48 14.49 6.45 14.52 6.41C14.54 6.38 14.57 6.34 14.59 6.3Z M11.67 12L11.67 4.99L7.34 1.52L3 4.98L3 12L5.00001 12L5.00001 8.33667C5.00001 8.28667 5.00001 8.24667 5.01001 8.20667C5.02001 8.15667 5.03001 8.11667 5.05001 8.07667C5.07001 8.03667 5.09001 7.99667 5.11001 7.96667C5.14001 7.92667 5.16001 7.89667 5.20001 7.86667C5.23001 7.82667 5.26001 7.80667 5.30001 7.77667C5.33001 7.75667 5.37001 7.73667 5.41001 7.71667C5.45001 7.69667 5.49001 7.68667 5.54001 7.67667C5.58001 7.66667 5.62001 7.66667 5.67001 7.66667L9.00001 7.66667C9.04001 7.66667 9.08001 7.66667 9.13001 7.67667C9.17001 7.68667 9.21001 7.69667 9.25001 7.71667L9.37001 7.77667C9.40001 7.80667 9.44001 7.82667 9.47001 7.86667C9.50001 7.89667 9.53001 7.92667 9.55001 7.96667C9.58001 7.99667 9.60001 8.03667 9.61001 8.07667C9.63001 8.11667 9.64001 8.15667 9.65001 8.20667C9.66001 8.24667 9.66001 8.28667 9.66001 8.33667L9.66001 12L11.67 12Z M8.33001 8.99667L6.33001 8.99667L6.33001 11.9967L8.33001 11.9967L8.33001 8.99667Z " /></g></g></svg>