<svg xmlns="http://www.w3.org/2000/svg" xmlns:xlink="http://www.w3.org/1999/xlink" width="32" height="32" viewBox="0 0 32 32" fill="none"><path id="减去顶层" fill-rule="evenodd" style="fill:#3D7EFF" transform="translate(3546 -611)  rotate(0 16 16)" opacity="1" d="M0 0L13.08 0C18.38 0 22.69 1.88 22.69 1.88C22.9753 2.00444 23.2526 2.13646 23.5219 2.27451L14.2256 17.78L10.6656 10.67L3.55556 10.67L14.2256 28.44L28.2936 5.92478C29.0822 6.76663 29.5 7.37 29.5 7.37C32 10.97 32 15.96 32 15.96C32 20.94 29.5 24.57 29.5 24.57C27 28.2 22.71 30.1 22.71 30.1C18.43 32 13.08 32 13.08 32L0 32L0 0Z " /></svg>
