<svg xmlns="http://www.w3.org/2000/svg" xmlns:xlink="http://www.w3.org/1999/xlink" width="128" height="128" viewBox="0 0 128 128" fill="none"><path id="减去顶层" fill-rule="evenodd" style="fill:#3D7EFF" transform="translate(0 0)  rotate(0 64 64)" opacity="1" d="M52.31,128C52.31,128 73.71,128 90.85,120.4C90.85,120.4 107.99,112.79 118,98.28C118,98.28 128,83.76 128,63.83C128,63.83 128,43.89 118,29.47C118,29.47 116.33,27.06 113.18,23.71L56.89,113.78L14.22,42.67L42.67,42.67L56.89,71.11L94.09,9.11C93.01,8.55 91.9,8.02 90.75,7.52C90.75,7.52 73.51,0 52.31,0L0,0L0,128L52.31,128Z " /></svg>
