<svg xmlns="http://www.w3.org/2000/svg" xmlns:xlink="http://www.w3.org/1999/xlink" width="16" height="16" viewBox="0 0 16 16" fill="none"><defs><rect id="path_0" x="0" y="0" width="16" height="16" /></defs><g opacity="1" transform="translate(0 0)  rotate(0 8 8)"><mask id="bg-mask-0" fill="white"><use xlink:href="#path_0"></use></mask><g mask="url(#bg-mask-0)" ><path id="路径 1" fill-rule="evenodd" style="fill:#FFFFFF" transform="translate(0 0)  rotate(0 8 8)" opacity="0.01" d="M0,16L16,16L16,0L0,0L0,16Z " /><path id="拼合图形" fill-rule="evenodd" style="fill:#666666" transform="translate(1.3333273129419467 0.9771913330659743)  rotate(0 6.3333361768623035 7.013402158049558)" opacity="1" d="M4.8,14.02C4.84,14.01 4.88,14 4.92,13.98C4.96,13.97 5,13.95 5.04,13.92C5.07,13.9 5.11,13.87 5.14,13.84C5.17,13.81 5.2,13.77 5.22,13.74C5.25,13.7 5.27,13.66 5.28,13.62C5.3,13.58 5.31,13.54 5.32,13.5C5.33,13.45 5.33,13.41 5.33,13.37L5.33,10.46C5.33,10.26 5.46,10.02 5.7,9.74C5.71,9.73 5.72,9.72 5.73,9.71C5.74,9.7 5.75,9.68 5.76,9.66C5.79,9.64 5.81,9.62 5.82,9.59C5.83,9.56 5.85,9.54 5.86,9.51L5.87,9.49C5.87,9.48 5.87,9.46 5.88,9.45C5.89,9.42 5.9,9.38 5.91,9.34L5.91,9.21C5.91,9.18 5.91,9.16 5.9,9.13C5.9,9.12 5.9,9.11 5.9,9.1C5.9,9.09 5.89,9.09 5.89,9.08C5.89,9.08 5.89,9.08 5.89,9.08C5.88,9.04 5.87,9 5.85,8.96C5.83,8.92 5.81,8.88 5.78,8.85C5.76,8.81 5.73,8.78 5.69,8.75C5.66,8.72 5.63,8.7 5.59,8.67C5.55,8.65 5.51,8.63 5.47,8.62C5.43,8.6 5.39,8.59 5.34,8.59L5.34,8.59C5.33,8.58 5.32,8.58 5.31,8.58C4.49,8.43 3.82,8.16 3.3,7.78C2.9,7.47 2.58,7.1 2.35,6.66C2.12,6.23 2,5.8 2,5.36C2,4.76 2.21,4.21 2.63,3.7C2.75,3.55 2.82,3.31 2.84,2.99C2.85,2.87 2.85,2.65 2.85,2.35C2.85,2.02 2.85,1.76 2.87,1.56C2.91,1.59 2.96,1.61 3.01,1.64C3.39,1.88 3.69,2.03 3.91,2.11C4.34,2.28 4.74,2.31 5.12,2.21C5.61,2.09 6.12,2.02 6.67,2.02C7.28,2.02 7.87,2.11 8.45,2.28C8.78,2.37 9.19,2.32 9.67,2.12C9.89,2.04 10.2,1.88 10.61,1.66C10.6,1.76 10.58,1.87 10.57,1.99C10.51,2.35 10.48,2.61 10.48,2.77C10.47,2.92 10.47,3.05 10.48,3.15C10.5,3.36 10.57,3.54 10.69,3.68C11.12,4.2 11.34,4.76 11.34,5.36C11.34,5.82 11.24,6.26 11.04,6.68C10.83,7.12 10.53,7.48 10.15,7.77C9.67,8.13 9.06,8.38 8.32,8.52C8.23,8.54 8.15,8.57 8.08,8.62C8,8.67 7.94,8.73 7.89,8.81C7.84,8.88 7.81,8.96 7.79,9.05C7.78,9.13 7.78,9.22 7.79,9.31C7.8,9.35 7.81,9.39 7.83,9.43L7.89,9.55C7.92,9.58 7.94,9.62 7.97,9.65C7.97,9.65 7.97,9.65 7.97,9.65C8.21,9.98 8.33,10.25 8.33,10.48L8.33,13.37C8.33,13.41 8.33,13.45 8.34,13.5C8.35,13.54 8.36,13.58 8.38,13.62L8.44,13.74C8.47,13.77 8.49,13.81 8.53,13.84C8.56,13.87 8.59,13.9 8.63,13.92C8.66,13.95 8.7,13.97 8.74,13.98C8.78,14 8.82,14.01 8.87,14.02C8.91,14.03 8.95,14.03 9,14.03C9.04,14.03 9.08,14.03 9.13,14.02C9.17,14.01 9.21,14 9.25,13.98C9.29,13.97 9.33,13.95 9.37,13.92C9.4,13.9 9.44,13.87 9.47,13.84C9.5,13.81 9.53,13.77 9.55,13.74C9.58,13.7 9.6,13.66 9.61,13.62C9.63,13.58 9.64,13.54 9.65,13.5C9.66,13.45 9.66,13.41 9.66,13.37L9.66,10.48C9.66,10.19 9.6,9.9 9.47,9.6C10.02,9.41 10.51,9.16 10.94,8.84C11.5,8.42 11.93,7.89 12.24,7.26C12.53,6.66 12.67,6.02 12.67,5.36C12.67,4.48 12.38,3.68 11.8,2.94C11.8,2.91 11.8,2.88 11.81,2.85C11.81,2.73 11.84,2.5 11.89,2.17C11.96,1.61 12,1.22 11.99,0.99C11.97,0.7 11.9,0.47 11.76,0.3C11.62,0.13 11.44,0.03 11.22,0.01C11.06,-0.01 10.89,0.02 10.73,0.09C10.59,0.16 10.36,0.28 10.05,0.44C9.33,0.84 8.91,1.03 8.81,1C8.12,0.79 7.4,0.69 6.67,0.69C6.01,0.69 5.38,0.77 4.79,0.92C4.68,0.95 4.55,0.93 4.38,0.87C4.24,0.82 4.01,0.69 3.7,0.5C3.37,0.3 3.11,0.16 2.93,0.09C2.74,0 2.55,-0.02 2.37,0.02C2.17,0.07 2.01,0.16 1.88,0.32C1.74,0.49 1.64,0.72 1.59,1.02C1.54,1.28 1.52,1.73 1.52,2.35C1.52,2.63 1.51,2.82 1.51,2.91C1.51,2.94 1.51,2.96 1.5,2.97C0.95,3.69 0.67,4.49 0.67,5.36C0.67,6.02 0.84,6.66 1.17,7.28C1.49,7.9 1.93,8.41 2.49,8.84C2.97,9.19 3.53,9.47 4.17,9.67C4.06,9.93 4,10.19 4,10.46L4,10.86L3.28,10.86C3.08,10.86 2.83,10.7 2.53,10.37C2.32,10.13 2.11,9.84 1.91,9.5L1.91,9.49L1.9,9.48C1.65,9.07 1.26,8.83 0.75,8.77C0.71,8.76 0.67,8.76 0.62,8.76C0.58,8.76 0.54,8.77 0.5,8.78C0.45,8.79 0.41,8.81 0.37,8.83C0.33,8.85 0.3,8.87 0.26,8.9C0.23,8.92 0.2,8.95 0.17,8.99C0.14,9.02 0.11,9.05 0.09,9.09C0.07,9.13 0.05,9.17 0.04,9.21C0.02,9.25 0.01,9.3 0.01,9.34C0,9.38 0,9.43 0,9.47C0,9.51 0.01,9.56 0.02,9.6C0.03,9.64 0.05,9.68 0.07,9.72C0.09,9.76 0.11,9.8 0.14,9.83C0.16,9.87 0.19,9.9 0.23,9.93C0.26,9.96 0.29,9.98 0.33,10C0.37,10.03 0.41,10.04 0.45,10.06C0.49,10.07 0.54,10.08 0.58,10.09C0.67,10.1 0.73,10.13 0.77,10.18C1.01,10.6 1.27,10.96 1.55,11.27C2.11,11.88 2.69,12.19 3.28,12.19L4,12.19L4,13.37C4,13.41 4,13.45 4.01,13.5C4.02,13.54 4.03,13.58 4.05,13.62L4.11,13.74C4.14,13.77 4.16,13.81 4.2,13.84C4.23,13.87 4.26,13.9 4.3,13.92C4.33,13.95 4.37,13.97 4.41,13.98C4.45,14 4.49,14.01 4.54,14.02C4.58,14.03 4.62,14.03 4.67,14.03C4.71,14.03 4.75,14.03 4.8,14.02Z " /></g></g></svg>