<svg xmlns="http://www.w3.org/2000/svg" xmlns:xlink="http://www.w3.org/1999/xlink" width="256" height="256" viewBox="0 0 256 256" fill="none"><path id="减去顶层" fill-rule="evenodd" style="fill:#3D7EFF" transform="translate(0 0)  rotate(0 128 128)" opacity="1" d="M104.62,256C104.62,256 147.42,256 181.7,240.79C181.7,240.79 215.98,225.57 235.99,196.55C235.99,196.55 256,167.52 256,127.65C256,127.65 256,87.78 235.99,58.93C235.99,58.93 232.66,54.13 226.37,47.42L113.77,227.56L28.44,85.33L85.33,85.33L113.77,142.22L188.19,18.21C186.02,17.1 183.79,16.04 181.5,15.04C181.5,15.04 147.02,0 104.62,0L0,0L0,256L104.62,256Z " /></svg>