<svg xmlns="http://www.w3.org/2000/svg" xmlns:xlink="http://www.w3.org/1999/xlink" width="224" height="32" viewBox="0 0 224 32" fill="none"><path id="分组 1" fill-rule="evenodd" style="fill:#3D7EFF" transform="translate(0 -7.290000915527344)  rotate(0 111.625 19.5)" opacity="1" d="M36.49 7.29L43.64 26.24L50.89 7.29L56.72 7.29L46.08 32.47L40.9 32.47L30.66 7.29L36.49 7.29ZM69.66 28.47C70.83 28.47 71.84 28.26 72.7 27.84C73.57 27.43 74.17 26.87 74.51 26.16C74.85 25.46 75.02 24.2 75.02 22.39L75.02 7.29L80.19 7.29L80.19 22.12C80.19 24.09 79.99 25.7 79.59 26.98C79.19 28.25 78.58 29.27 77.75 30.05Q74.87 32.66 69.59 32.66C65.82 32.66 63.08 31.8 61.35 30.09C60.45 29.21 59.83 28.22 59.49 27.13C59.15 26.03 58.98 24.49 58.98 22.5L58.98 7.29L64.12 7.29L64.12 22.39C64.12 23.6 64.22 24.53 64.41 25.2C64.61 25.87 64.93 26.44 65.4 26.92C66.42 27.95 67.84 28.47 69.66 28.47ZM96.38 11.78C94.63 11.78 93.35 11.91 92.55 12.16C91.75 12.41 91.08 12.9 90.55 13.63C90.18 14.13 89.93 14.64 89.8 15.14C89.66 15.64 89.55 16.5 89.45 17.71L103.12 17.71L103.12 22.2L89.45 22.2C89.65 24.36 90.27 25.87 91.31 26.71C92.36 27.55 94.13 27.98 96.63 27.98L103.12 27.98L103.12 32.47L96.38 32.47C94.55 32.47 92.95 32.36 91.57 32.13C89.38 31.75 87.64 30.76 86.35 29.15C84.51 26.83 83.58 23.7 83.58 19.75C83.58 15.37 84.88 11.96 87.48 9.51C88.38 8.68 89.34 8.1 90.34 7.78C91.35 7.45 92.71 7.29 94.41 7.29L103.12 7.29L103.12 11.78L96.38 11.78ZM123.64 32.47L132.02 32.47L132.02 7.29L127.17 7.29L127.17 14.08L122.58 14.08C120.3 14.08 118.49 14.66 117.15 15.82C115.11 17.56 114.09 20 114.09 23.14C114.09 25.08 114.44 26.72 115.15 28.05C116.17 30.04 117.71 31.37 119.78 32.05C120.65 32.33 121.94 32.47 123.64 32.47ZM180.13 7.29L180.13 12.19L175.25 12.19L175.25 7.29L180.13 7.29ZM21.48 12L10.8 29.71L2.7 15.73L8.1 15.73L10.8 21.32L17.86 9.13C17.66 9.02 17.45 8.92 17.23 8.82C17.23 8.82 13.95 7.34 9.93 7.34L0 7.34L0 32.51L9.93 32.51C9.93 32.51 13.99 32.51 17.24 31.01C17.24 31.01 20.5 29.52 22.39 26.67C22.39 26.67 24.3 23.81 24.3 19.89C24.3 19.89 24.3 15.97 22.39 13.13C22.39 13.13 22.08 12.66 21.48 12ZM151.3 28.54L145.36 28.54C143.88 28.54 142.81 28.29 142.15 27.79C141.5 27.28 141.12 26.43 141.02 25.22L151.3 25.22L151.3 21.29L141.02 21.29C141.15 20.03 141.47 19.17 142.01 18.71C142.54 18.24 143.48 18.01 144.82 18.01L151.3 18.01L151.3 14.08L144.45 14.08C142.68 14.08 141.24 14.32 140.15 14.8C139.06 15.28 138.12 16.08 137.34 17.22C136.2 18.88 135.63 20.82 135.63 23.03C135.63 26.45 136.71 29.03 138.87 30.77C139.65 31.37 140.48 31.81 141.37 32.07C142.26 32.34 143.41 32.47 144.82 32.47L151.3 32.47L151.3 28.54ZM160.12 21.14C159.59 20.79 159.32 20.29 159.32 19.63Q159.32 18.46 160.16 18.16C160.43 18.06 161.06 18.01 162.05 18.01L170.69 18.01L170.69 14.08L160.27 14.08C158.35 14.08 157 14.41 156.22 15.06C154.94 16.15 154.29 17.61 154.29 19.44Q154.29 20.88 154.86 22.14C155.23 22.99 155.75 23.65 156.41 24.12C156.94 24.53 157.52 24.8 158.14 24.96C158.76 25.11 159.65 25.18 160.82 25.18L163.77 25.18C164.89 25.18 165.59 25.26 165.88 25.41C166.47 25.69 166.76 26.2 166.76 26.96C166.76 27.89 166.32 28.4 165.44 28.5C165.06 28.53 164.33 28.54 163.26 28.54L154.55 28.54L154.55 32.47L164.64 32.47C166.44 32.47 167.72 32.33 168.49 32.05C169.25 31.78 169.9 31.2 170.44 30.32C171.17 29.21 171.53 27.99 171.53 26.65C171.53 24.89 170.94 23.56 169.75 22.65C168.68 21.85 167.22 21.44 165.37 21.44L162.49 21.44C161.2 21.44 160.41 21.34 160.12 21.14ZM175.25 14.08L180.13 14.08L180.13 32.47L175.25 32.47L175.25 14.08ZM189.55 14.44C190.42 14.2 191.52 14.08 192.85 14.08L201.96 14.08L201.96 32.36C201.96 33.39 201.85 34.31 201.62 35.11C201.39 35.92 201.05 36.6 200.62 37.15C200.06 37.85 199.38 38.34 198.59 38.6C197.8 38.87 196.66 39 195.15 39L185.42 39L185.42 35.07L194.49 35.07C195.56 35.07 196.26 34.9 196.59 34.56C196.92 34.22 197.08 33.53 197.08 32.47L192.6 32.47C191.16 32.47 189.98 32.31 189.04 32C188.11 31.68 187.26 31.16 186.51 30.43C184.74 28.69 183.85 26.3 183.85 23.26C183.85 19.78 184.93 17.25 187.09 15.67C187.87 15.09 188.69 14.68 189.55 14.44ZM218.37 32.47L218.37 20.58C218.37 19.67 218.17 19.02 217.78 18.61C217.39 18.21 216.75 18.01 215.85 18.01L211.62 18.01L211.62 32.47L206.74 32.47L206.74 14.08L216.14 14.08C217.55 14.08 218.63 14.19 219.37 14.4C220.11 14.62 220.78 15 221.39 15.55C222.63 16.74 223.25 18.6 223.25 21.14L223.25 32.47L218.37 32.47ZM120.1 19.63Q119.05 20.995 119.05 23.14C119.05 25.23 119.63 26.73 120.8 27.64C121.6 28.24 122.55 28.54 123.64 28.54L127.17 28.54L127.17 18.01L123.64 18.01C122.08 18.01 120.91 18.55 120.1 19.63ZM197.08 28.54L193.29 28.54C191.83 28.54 190.72 28.1 189.96 27.2C189.19 26.31 188.81 25.01 188.81 23.29C188.81 19.77 190.22 18.01 193.04 18.01L197.08 18.01L197.08 28.54ZM110.99 32.47L110.99 27.56L106.58 27.56L106.58 32.47L110.99 32.47Z" /></svg>